HIERARCHY
ROOT mixamorig:Hips
{
	OFFSET -0.000008 104.274872 1.554316
	CHANNELS 6 Xposition Yposition Zposition Xrotation Yrotation Zrotation
	JOINT mixamorig:Spine
	{
		OFFSET -0.000005 10.181595 0.131519
		CHANNELS 6 Xposition Yposition Zposition Xrotation Yrotation Zrotation
		JOINT mixamorig:Spine1
		{
			OFFSET -0.000000 9.893959 -1.470707
			CHANNELS 6 Xposition Yposition Zposition Xrotation Yrotation Zrotation
			JOINT mixamorig:Spine2
			{
				OFFSET -0.000000 9.220757 -1.370641
				CHANNELS 6 Xposition Yposition Zposition Xrotation Yrotation Zrotation
				JOINT mixamorig:Neck
				{
					OFFSET 0.000001 16.740417 -2.049036
					CHANNELS 6 Xposition Yposition Zposition Xrotation Yrotation Zrotation
					JOINT mixamorig:Head
					{
						OFFSET 0.000000 9.617874 1.685006
						CHANNELS 6 Xposition Yposition Zposition Xrotation Yrotation Zrotation
						JOINT mixamorig:HeadTop_End
						{
							OFFSET 0.000002 22.037354 7.501101
							CHANNELS 6 Xposition Yposition Zposition Xrotation Yrotation Zrotation
							End Site
							{
								OFFSET 0.000168 2310.654297 -282.823242
							}
						}
					}
				}
				JOINT mixamorig:RightShoulder
				{
					OFFSET -4.569970 11.014908 -2.160885
					CHANNELS 6 Xposition Yposition Zposition Xrotation Yrotation Zrotation
					JOINT mixamorig:RightArm
					{
						OFFSET -10.592851 -0.524811 -2.232101
						CHANNELS 6 Xposition Yposition Zposition Xrotation Yrotation Zrotation
						JOINT mixamorig:RightForeArm
						{
							OFFSET -27.841511 0.000031 -0.000004
							CHANNELS 6 Xposition Yposition Zposition Xrotation Yrotation Zrotation
							JOINT mixamorig:RightHand
							{
								OFFSET -28.328831 -0.000015 0.000015
								CHANNELS 6 Xposition Yposition Zposition Xrotation Yrotation Zrotation
								JOINT mixamorig:RightHandThumb1
								{
									OFFSET -2.464806 -1.573990 2.681852
									CHANNELS 6 Xposition Yposition Zposition Xrotation Yrotation Zrotation
									JOINT mixamorig:RightHandThumb2
									{
										OFFSET -3.215179 -1.872803 1.924282
										CHANNELS 6 Xposition Yposition Zposition Xrotation Yrotation Zrotation
										JOINT mixamorig:RightHandThumb3
										{
											OFFSET -2.654831 -1.527969 1.512609
											CHANNELS 6 Xposition Yposition Zposition Xrotation Yrotation Zrotation
											JOINT mixamorig:RightHandThumb4
											{
												OFFSET -2.018814 -1.152008 1.108052
												CHANNELS 6 Xposition Yposition Zposition Xrotation Yrotation Zrotation
												End Site
												{
													OFFSET -188.809540 -114.533607 132.431396
												}
											}
										}
									}
								}
								JOINT mixamorig:RightHandIndex1
								{
									OFFSET -9.108284 -0.517868 2.259835
									CHANNELS 6 Xposition Yposition Zposition Xrotation Yrotation Zrotation
									JOINT mixamorig:RightHandIndex2
									{
										OFFSET -3.699989 0.000000 0.001215
										CHANNELS 6 Xposition Yposition Zposition Xrotation Yrotation Zrotation
										JOINT mixamorig:RightHandIndex3
										{
											OFFSET -2.850006 0.000031 -0.000522
											CHANNELS 6 Xposition Yposition Zposition Xrotation Yrotation Zrotation
											JOINT mixamorig:RightHandIndex4
											{
												OFFSET -2.772186 -0.000015 -0.000020
												CHANNELS 6 Xposition Yposition Zposition Xrotation Yrotation Zrotation
												End Site
												{
													OFFSET -277.218445 0.000000 -0.050231
												}
											}
										}
									}
								}
								JOINT mixamorig:RightHandMiddle1
								{
									OFFSET -9.532516 -0.000031 -0.000023
									CHANNELS 6 Xposition Yposition Zposition Xrotation Yrotation Zrotation
									JOINT mixamorig:RightHandMiddle2
									{
										OFFSET -3.700005 -0.000015 0.003713
										CHANNELS 6 Xposition Yposition Zposition Xrotation Yrotation Zrotation
										JOINT mixamorig:RightHandMiddle3
										{
											OFFSET -2.949974 0.000015 -0.002054
											CHANNELS 6 Xposition Yposition Zposition Xrotation Yrotation Zrotation
											JOINT mixamorig:RightHandMiddle4
											{
												OFFSET -2.946640 0.000000 -0.000156
												CHANNELS 6 Xposition Yposition Zposition Xrotation Yrotation Zrotation
												End Site
												{
													OFFSET -294.664337 0.000000 -0.113670
												}
											}
										}
									}
								}
								JOINT mixamorig:RightHandRing1
								{
									OFFSET -9.103600 -0.043076 -1.865134
									CHANNELS 6 Xposition Yposition Zposition Xrotation Yrotation Zrotation
									JOINT mixamorig:RightHandRing2
									{
										OFFSET -3.379288 0.000000 -0.001055
										CHANNELS 6 Xposition Yposition Zposition Xrotation Yrotation Zrotation
										JOINT mixamorig:RightHandRing3
										{
											OFFSET -2.889687 -0.000015 0.000379
											CHANNELS 6 Xposition Yposition Zposition Xrotation Yrotation Zrotation
											JOINT mixamorig:RightHandRing4
											{
												OFFSET -2.638809 -0.000015 0.000941
												CHANNELS 6 Xposition Yposition Zposition Xrotation Yrotation Zrotation
												End Site
												{
													OFFSET -263.880371 0.000000 0.516020
												}
											}
										}
									}
								}
								JOINT mixamorig:RightHandPinky1
								{
									OFFSET -8.076683 -0.486710 -3.806280
									CHANNELS 6 Xposition Yposition Zposition Xrotation Yrotation Zrotation
									JOINT mixamorig:RightHandPinky2
									{
										OFFSET -3.600014 -0.000015 -0.003747
										CHANNELS 6 Xposition Yposition Zposition Xrotation Yrotation Zrotation
										JOINT mixamorig:RightHandPinky3
										{
											OFFSET -2.099983 0.000000 -0.005739
											CHANNELS 6 Xposition Yposition Zposition Xrotation Yrotation Zrotation
											JOINT mixamorig:RightHandPinky4
											{
												OFFSET -2.115768 -0.000031 -0.003680
												CHANNELS 6 Xposition Yposition Zposition Xrotation Yrotation Zrotation
												End Site
												{
													OFFSET -211.577087 0.000000 -0.350686
												}
											}
										}
									}
								}
							}
						}
					}
				}
				JOINT mixamorig:LeftShoulder
				{
					OFFSET 4.570447 11.014725 -2.160855
					CHANNELS 6 Xposition Yposition Zposition Xrotation Yrotation Zrotation
					JOINT mixamorig:LeftArm
					{
						OFFSET 10.592371 -0.524597 -2.232119
						CHANNELS 6 Xposition Yposition Zposition Xrotation Yrotation Zrotation
						JOINT mixamorig:LeftForeArm
						{
							OFFSET 27.841532 -0.000031 0.000026
							CHANNELS 6 Xposition Yposition Zposition Xrotation Yrotation Zrotation
							JOINT mixamorig:LeftHand
							{
								OFFSET 28.328846 -0.000061 0.000022
								CHANNELS 6 Xposition Yposition Zposition Xrotation Yrotation Zrotation
								JOINT mixamorig:LeftHandThumb1
								{
									OFFSET 2.466141 -1.576172 2.681732
									CHANNELS 6 Xposition Yposition Zposition Xrotation Yrotation Zrotation
									JOINT mixamorig:LeftHandThumb2
									{
										OFFSET 3.217812 -1.872070 1.916482
										CHANNELS 6 Xposition Yposition Zposition Xrotation Yrotation Zrotation
										JOINT mixamorig:LeftHandThumb3
										{
											OFFSET 2.656029 -1.528778 1.514513
											CHANNELS 6 Xposition Yposition Zposition Xrotation Yrotation Zrotation
											JOINT mixamorig:LeftHandThumb4
											{
												OFFSET 2.020889 -1.154053 1.115139
												CHANNELS 6 Xposition Yposition Zposition Xrotation Yrotation Zrotation
												End Site
												{
													OFFSET 190.885437 -115.081749 130.048782
												}
											}
										}
									}
								}
								JOINT mixamorig:LeftHandIndex1
								{
									OFFSET 9.109314 -0.518021 2.259871
									CHANNELS 6 Xposition Yposition Zposition Xrotation Yrotation Zrotation
									JOINT mixamorig:LeftHandIndex2
									{
										OFFSET 3.699989 0.000000 -0.000322
										CHANNELS 6 Xposition Yposition Zposition Xrotation Yrotation Zrotation
										JOINT mixamorig:LeftHandIndex3
										{
											OFFSET 2.850006 0.000000 0.000352
											CHANNELS 6 Xposition Yposition Zposition Xrotation Yrotation Zrotation
											JOINT mixamorig:LeftHandIndex4
											{
												OFFSET 2.774864 -0.000031 -0.000027
												CHANNELS 6 Xposition Yposition Zposition Xrotation Yrotation Zrotation
												End Site
												{
													OFFSET 277.486267 0.000000 -0.009857
												}
											}
										}
									}
								}
								JOINT mixamorig:LeftHandMiddle1
								{
									OFFSET 9.533394 0.000061 0.000044
									CHANNELS 6 Xposition Yposition Zposition Xrotation Yrotation Zrotation
									JOINT mixamorig:LeftHandMiddle2
									{
										OFFSET 3.699989 -0.000015 -0.000231
										CHANNELS 6 Xposition Yposition Zposition Xrotation Yrotation Zrotation
										JOINT mixamorig:LeftHandMiddle3
										{
											OFFSET 2.949997 -0.000015 -0.000059
											CHANNELS 6 Xposition Yposition Zposition Xrotation Yrotation Zrotation
											JOINT mixamorig:LeftHandMiddle4
											{
												OFFSET 2.952896 0.000031 0.000063
												CHANNELS 6 Xposition Yposition Zposition Xrotation Yrotation Zrotation
												End Site
												{
													OFFSET 295.289337 0.000000 0.022810
												}
											}
										}
									}
								}
								JOINT mixamorig:LeftHandRing1
								{
									OFFSET 9.104523 -0.042999 -1.865074
									CHANNELS 6 Xposition Yposition Zposition Xrotation Yrotation Zrotation
									JOINT mixamorig:LeftHandRing2
									{
										OFFSET 3.150009 -0.000031 0.000043
										CHANNELS 6 Xposition Yposition Zposition Xrotation Yrotation Zrotation
										JOINT mixamorig:LeftHandRing3
										{
											OFFSET 2.949982 -0.000015 0.000040
											CHANNELS 6 Xposition Yposition Zposition Xrotation Yrotation Zrotation
											JOINT mixamorig:LeftHandRing4
											{
												OFFSET 2.644348 0.000000 0.000057
												CHANNELS 6 Xposition Yposition Zposition Xrotation Yrotation Zrotation
												End Site
												{
													OFFSET 264.434631 0.000000 0.012105
												}
											}
										}
									}
								}
								JOINT mixamorig:LeftHandPinky1
								{
									OFFSET 8.077789 -0.486847 -3.806259
									CHANNELS 6 Xposition Yposition Zposition Xrotation Yrotation Zrotation
									JOINT mixamorig:LeftHandPinky2
									{
										OFFSET 3.599953 0.000031 0.014727
										CHANNELS 6 Xposition Yposition Zposition Xrotation Yrotation Zrotation
										JOINT mixamorig:LeftHandPinky3
										{
											OFFSET 2.100021 0.000015 0.007705
											CHANNELS 6 Xposition Yposition Zposition Xrotation Yrotation Zrotation
											JOINT mixamorig:LeftHandPinky4
											{
												OFFSET 2.125504 0.000031 0.007517
												CHANNELS 6 Xposition Yposition Zposition Xrotation Yrotation Zrotation
												End Site
												{
													OFFSET 212.550781 0.000000 0.625752
												}
											}
										}
									}
								}
							}
						}
					}
				}
			}
		}
	}
	JOINT mixamorig:RightUpLeg
	{
		OFFSET -8.207787 -6.751648 -1.599560
		CHANNELS 6 Xposition Yposition Zposition Xrotation Yrotation Zrotation
		JOINT mixamorig:RightLeg
		{
			OFFSET -0.000002 -44.370117 0.345942
			CHANNELS 6 Xposition Yposition Zposition Xrotation Yrotation Zrotation
			JOINT mixamorig:RightFoot
			{
				OFFSET 0.000003 -44.423679 -3.043532
				CHANNELS 6 Xposition Yposition Zposition Xrotation Yrotation Zrotation
				JOINT mixamorig:RightToeBase
				{
					OFFSET -0.000002 -8.728671 10.710558
					CHANNELS 6 Xposition Yposition Zposition Xrotation Yrotation Zrotation
					JOINT mixamorig:RightToe_End
					{
						OFFSET -0.000001 -0.000679 9.278119
						CHANNELS 6 Xposition Yposition Zposition Xrotation Yrotation Zrotation
						End Site
						{
							OFFSET 0.000000 -0.067690 927.812134
						}
					}
				}
			}
		}
	}
	JOINT mixamorig:LeftUpLeg
	{
		OFFSET 8.207793 -6.751686 -1.599556
		CHANNELS 6 Xposition Yposition Zposition Xrotation Yrotation Zrotation
		JOINT mixamorig:LeftLeg
		{
			OFFSET -0.000004 -44.370014 0.346954
			CHANNELS 6 Xposition Yposition Zposition Xrotation Yrotation Zrotation
			JOINT mixamorig:LeftFoot
			{
				OFFSET -0.000001 -44.423672 -3.044401
				CHANNELS 6 Xposition Yposition Zposition Xrotation Yrotation Zrotation
				JOINT mixamorig:LeftToeBase
				{
					OFFSET -0.000002 -8.728669 10.710558
					CHANNELS 6 Xposition Yposition Zposition Xrotation Yrotation Zrotation
					JOINT mixamorig:LeftToe_End
					{
						OFFSET -0.000003 -0.000679 9.278133
						CHANNELS 6 Xposition Yposition Zposition Xrotation Yrotation Zrotation
						End Site
						{
							OFFSET 0.000000 -0.068021 927.813477
						}
					}
				}
			}
		}
	}
}
MOTION
Frames: 3
Frame Time: 0.033333
0.000006 104.270477 1.554256 0.000010 0.000003 -0.000113 -0.000005 10.181587 0.131522 0.000001 -0.000003 0.000084 -0.000000 9.893967 -1.470711 0.000001 0.000000 -0.000000 -0.000000 9.220802 -1.370642 0.000000 -0.000000 -0.000000 0.000001 16.740433 -2.049030 0.000000 -0.000000 -0.000000 0.000000 9.617859 1.685014 0.000000 0.000000 0.000000 0.000002 22.037384 7.501101 0.000000 -0.000000 0.000000 -4.569968 11.014880 -2.160881 0.000008 0.000001 -0.000038 -10.592875 -0.524759 -2.231925 73.943976 27.808079 -21.112272 -27.841530 0.000020 0.000539 -51.547011 104.351391 63.758156 -28.328829 0.000021 0.000030 -0.000318 -0.000043 0.000007 -2.464392 -1.573849 2.682349 -38.967264 -154.731980 9.015839 -3.215239 -1.872494 1.924608 146.126174 33.028476 28.423108 -2.654966 -1.527844 1.513040 144.881317 28.270696 -24.930201 -2.018830 -1.152011 1.108053 -0.000004 -0.000005 0.000000 -9.108369 -0.517568 2.260159 108.294965 16.110996 -22.226971 -3.700073 0.000301 0.001560 104.205389 13.751321 -17.581057 -2.850093 0.000356 -0.000233 103.645628 11.869662 -15.061699 -2.772171 -0.000015 -0.000021 -0.000000 0.000000 -0.000000 -9.532581 0.000258 0.000274 97.197451 17.979206 -20.508579 -3.700086 0.000331 0.003991 96.734303 13.072384 -14.582486 -2.950067 0.000320 -0.001805 99.305971 12.430830 -14.603113 -2.946634 0.000015 -0.000155 0.000000 -0.000000 0.000001 -9.103698 -0.042775 -1.864853 95.048223 21.940060 -23.857296 -3.379342 0.000299 -0.000791 96.040130 11.611188 -12.913969 -2.889760 0.000341 0.000689 102.223446 8.232378 -10.254813 -2.638823 0.000001 0.000942 -0.000003 -0.000000 -0.000001 -8.076767 -0.486409 -3.806059 80.410362 23.180696 -19.533327 -3.600055 0.000262 -0.003538 83.202626 12.145921 -10.461746 -2.100021 0.000304 -0.005505 86.801281 6.749021 -6.172360 -2.115784 -0.000042 -0.003677 -0.000002 0.000002 -0.000003 4.570446 11.014691 -2.160851 -0.000018 0.000010 -0.000021 10.592524 -0.524521 -2.232407 70.179108 -59.315091 43.606079 27.841757 -0.000043 -0.000116 228.686877 -79.577906 237.024940 28.328831 -0.000028 0.000032 0.000024 -0.000088 -0.000000 2.466178 -1.576129 2.681890 127.031683 178.306296 -165.674489 3.217824 -1.871994 1.916552 277.886684 37.814943 32.692601 2.655990 -1.528823 1.514594 241.260860 57.477032 68.211979 2.020891 -1.154058 1.115155 0.000003 0.000004 0.000002 9.109303 -0.517769 2.260110 244.838649 -4.888081 352.324435 3.699996 0.000261 -0.000097 241.692582 -2.123480 356.422521 2.850015 0.000281 0.000572 236.171686 -0.233973 359.563588 2.774887 -0.000017 -0.000028 0.000001 0.000000 0.000000 9.533381 0.000281 0.000291 247.343799 -4.256775 353.623974 3.699993 0.000226 0.000008 248.575500 -0.481164 -0.702427 2.950022 0.000238 0.000175 245.660294 1.421096 2.198488 2.952868 -0.000017 0.000065 -0.000001 -0.000002 -0.000001 9.104523 -0.042786 -1.864827 249.545824 -2.504551 356.391239 3.150003 0.000251 0.000272 256.343119 -1.155408 -1.471639 2.949984 0.000223 0.000276 254.760319 -1.125931 -1.475573 2.644330 0.000015 0.000058 0.000001 0.000001 0.000001 8.077785 -0.486666 -3.805996 257.096599 -1.613910 357.404483 3.599975 0.000210 0.014974 267.013705 2.688537 2.369047 2.100018 0.000201 0.007935 266.165833 4.737442 4.599337 2.125499 -0.000016 0.007528 -0.000001 0.000001 -0.000001 -8.207786 -6.751667 -1.599560 -0.077001 -0.000003 0.000080 -0.000002 -44.370110 0.345938 0.153719 -0.000000 -0.000000 0.000000 -44.423679 -3.043532 -0.076700 0.000000 -0.000002 -0.000006 -8.728667 10.710559 -0.000009 -0.000000 -0.000000 -0.000001 -0.000679 9.278123 0.000000 -0.000000 -0.000000 8.207792 -6.751710 -1.599556 -0.074518 -0.000003 0.000081 -0.000002 -44.370014 0.346960 0.148822 0.000002 0.000000 -0.000001 -44.423664 -3.044403 -0.074314 0.000000 -0.000002 -0.000004 -8.728671 10.710558 0.000007 -0.000000 -0.000000 0.000000 -0.000680 9.278137 -0.000000 0.000000 -0.000001 
0.000006 104.270477 1.554256 0.000010 0.000003 -0.000113 -0.000005 10.181587 0.131522 0.000001 -0.000003 0.000084 -0.000000 9.893967 -1.470711 0.000001 0.000000 -0.000000 -0.000000 9.220802 -1.370642 0.000000 -0.000000 -0.000000 0.000001 16.740433 -2.049030 0.000000 -0.000000 -0.000000 0.000000 9.617859 1.685014 0.000000 0.000000 0.000000 0.000002 22.037384 7.501101 0.000000 -0.000000 0.000000 -4.569968 11.014880 -2.160881 0.000008 0.000001 -0.000038 -10.592881 -0.524761 -2.231925 73.792694 27.212259 -20.597006 -27.841526 0.000015 0.000540 -51.398758 104.516490 63.741115 -28.328815 0.000022 0.000030 -0.000321 -0.000043 0.000005 -2.464401 -1.573873 2.682342 -38.516967 -154.271352 9.803629 -3.215240 -1.872493 1.924630 146.057189 33.094753 29.252040 -2.654961 -1.527873 1.513035 144.948034 28.240781 -25.241341 -2.018846 -1.152013 1.108069 -0.000002 -0.000004 0.000000 -9.108384 -0.517567 2.260181 108.343719 16.480625 -22.749314 -3.700082 0.000307 0.001554 104.273199 14.109544 -18.058470 -2.850069 0.000362 -0.000203 103.983756 12.213715 -15.589606 -2.772163 -0.000016 -0.000018 -0.000000 -0.000003 0.000000 -9.532598 0.000256 0.000260 97.042576 18.346540 -20.867077 -3.700079 0.000319 0.003995 97.112804 13.119982 -14.732428 -2.950064 0.000333 -0.001791 100.319189 12.648539 -15.124185 -2.946610 -0.000014 -0.000155 -0.000003 0.000002 0.000000 -9.103724 -0.042774 -1.864841 94.670431 22.027765 -23.798937 -3.379364 0.000318 -0.000792 96.176741 11.536061 -12.861202 -2.889768 0.000342 0.000651 103.084213 8.369646 -10.585484 -2.638817 -0.000015 0.000940 0.000000 0.000001 -0.000003 -8.076779 -0.486411 -3.806034 80.579478 22.813788 -19.276594 -3.600064 0.000261 -0.003538 82.836623 12.175353 -10.420868 -2.100024 0.000288 -0.005505 86.768326 7.057779 -6.459844 -2.115767 -0.000031 -0.003679 -0.000000 0.000004 -0.000004 4.570446 11.014691 -2.160851 -0.000018 0.000010 -0.000021 10.592522 -0.524520 -2.232399 70.162012 -58.798141 43.179520 27.841761 -0.000048 -0.000129 228.458012 -79.652935 236.705451 28.328827 -0.000028 0.000022 0.000020 -0.000089 -0.000001 2.466170 -1.576115 2.681884 128.400999 182.056083 -166.124913 3.217831 -1.871985 1.916529 277.656779 36.379374 32.433669 2.656003 -1.528820 1.514589 253.830757 53.073121 55.637010 2.020883 -1.154081 1.115153 0.000001 0.000004 0.000006 9.109289 -0.517754 2.260099 240.879134 -5.180245 351.210923 3.699991 0.000262 -0.000100 240.060495 -1.443088 357.480162 2.850022 0.000284 0.000568 235.691851 0.278448 360.529186 2.774889 -0.000044 -0.000026 0.000001 0.000001 -0.000001 9.533387 0.000312 0.000266 243.615690 -5.225223 351.594752 3.700002 0.000229 -0.000012 245.559945 -0.429850 -0.664060 2.950025 0.000253 0.000157 243.278880 1.617195 2.620264 2.952860 -0.000016 0.000070 -0.000002 0.000000 -0.000001 9.104521 -0.042761 -1.864837 245.371568 -3.517006 354.518865 3.150005 0.000233 0.000250 251.139909 -0.620493 -0.869766 2.949985 0.000238 0.000301 250.604231 -0.282108 -0.400480 2.644319 0.000044 0.000055 -0.000000 0.000000 -0.000000 8.077785 -0.486629 -3.806010 251.352628 -2.607494 355.749447 3.599978 0.000224 0.014964 258.436463 1.597066 1.427476 2.100010 0.000200 0.007928 257.990752 3.812080 4.176610 2.125500 -0.000017 0.007517 -0.000000 -0.000000 0.000002 -8.207786 -6.751667 -1.599560 -0.077001 -0.000003 0.000080 -0.000002 -44.370110 0.345938 0.153719 -0.000000 -0.000000 0.000000 -44.423679 -3.043532 -0.076700 0.000000 -0.000002 -0.000006 -8.728667 10.710559 -0.000009 -0.000000 -0.000000 -0.000001 -0.000679 9.278123 0.000000 -0.000000 -0.000000 8.207792 -6.751710 -1.599556 -0.074518 -0.000003 0.000081 -0.000002 -44.370014 0.346960 0.148822 0.000002 0.000000 -0.000001 -44.423664 -3.044403 -0.074314 0.000000 -0.000002 -0.000004 -8.728671 10.710558 0.000007 -0.000000 -0.000000 0.000000 -0.000680 9.278137 -0.000000 0.000000 -0.000001 
0.000006 104.270477 1.554256 0.000010 0.000003 -0.000113 -0.000005 10.181587 0.131522 0.000001 -0.000003 0.000084 -0.000000 9.893967 -1.470711 0.000001 0.000000 -0.000000 -0.000000 9.220802 -1.370642 0.000000 -0.000000 -0.000000 0.000001 16.740433 -2.049030 0.000000 -0.000000 -0.000000 0.000000 9.617859 1.685014 0.000000 0.000000 0.000000 0.000002 22.037384 7.501101 0.000000 -0.000000 0.000000 -4.569968 11.014880 -2.160881 0.000008 0.000001 -0.000038 -10.592876 -0.524763 -2.231913 73.752519 27.999222 -21.187722 -27.841518 0.000021 0.000537 -51.214715 104.388766 63.411818 -28.328829 0.000022 0.000021 -0.000318 -0.000042 0.000007 -2.464378 -1.573871 2.682359 -38.387999 -154.520462 10.172532 -3.215235 -1.872517 1.924617 146.548129 33.231520 29.044389 -2.654960 -1.527853 1.513047 145.604771 28.148251 -25.564599 -2.018842 -1.152002 1.108060 -0.000004 0.000000 0.000005 -9.108383 -0.517567 2.260184 108.318146 17.076127 -23.547856 -3.700067 0.000311 0.001563 104.232122 14.775629 -18.892508 -2.850093 0.000366 -0.000227 104.049237 12.822701 -16.382002 -2.772171 -0.000016 -0.000023 0.000000 0.000001 0.000000 -9.532583 0.000250 0.000261 96.769096 18.743871 -21.213861 -3.700091 0.000318 0.003988 96.999956 13.379569 -14.995590 -2.950053 0.000340 -0.001763 100.372806 12.949376 -15.497322 -2.946615 -0.000000 -0.000154 -0.000003 -0.000001 -0.000001 -9.103702 -0.042788 -1.864839 94.241181 22.095973 -23.698801 -3.379336 0.000320 -0.000782 96.898931 11.656243 -13.159267 -2.889767 0.000342 0.000674 103.828745 8.627757 -11.055498 -2.638806 0.000015 0.000939 -0.000001 -0.000001 0.000002 -8.076760 -0.486428 -3.806047 80.224861 23.208634 -19.494255 -3.600056 0.000261 -0.003534 83.050907 12.716711 -10.938522 -2.100014 0.000311 -0.005507 86.944845 7.474143 -6.873471 -2.115766 -0.000029 -0.003677 0.000004 -0.000000 -0.000001 4.570446 11.014691 -2.160851 -0.000018 0.000010 -0.000021 10.592519 -0.524516 -2.232402 70.103081 -58.754407 43.101704 27.841755 -0.000053 -0.000131 227.993490 -79.691171 236.154064 28.328831 -0.000014 0.000031 0.000022 -0.000086 0.000000 2.466171 -1.576158 2.681881 127.347757 169.339459 -165.493011 3.217819 -1.872012 1.916524 281.672439 40.842817 31.215098 2.655950 -1.528831 1.514581 227.857283 63.155112 83.628850 2.020894 -1.154055 1.115136 0.000007 0.000002 0.000004 9.109324 -0.517789 2.260089 247.632661 -1.156045 358.288856 3.700003 0.000239 -0.000089 243.897313 0.128332 360.183141 2.850007 0.000274 0.000559 236.270805 0.714206 361.337634 2.774884 -0.000017 -0.000028 -0.000000 -0.000001 0.000001 9.533413 0.000261 0.000280 250.788072 -0.186810 359.747129 3.700022 0.000211 0.000003 252.404586 1.834469 2.509255 2.950030 0.000225 0.000174 247.351968 2.079229 3.116238 2.952866 -0.000031 0.000064 -0.000000 0.000001 -0.000000 9.104548 -0.042824 -1.864848 255.244333 1.610469 362.087370 3.150002 0.000207 0.000256 262.356637 1.541014 1.759797 2.949981 0.000214 0.000281 258.688934 -0.901642 -1.101609 2.644317 0.000049 0.000059 0.000000 -0.000000 0.000000 8.077806 -0.486705 -3.806028 262.270494 2.650939 362.474369 3.599970 0.000149 0.014957 274.035468 7.443800 6.498481 2.100027 0.000149 0.007928 272.866358 8.365065 7.521730 2.125497 -0.000030 0.007512 -0.000007 -0.000000 -0.000000 -8.207786 -6.751667 -1.599560 -0.077001 -0.000003 0.000080 -0.000002 -44.370110 0.345938 0.153719 -0.000000 -0.000000 0.000000 -44.423679 -3.043532 -0.076700 0.000000 -0.000002 -0.000006 -8.728667 10.710559 -0.000009 -0.000000 -0.000000 -0.000001 -0.000679 9.278123 0.000000 -0.000000 -0.000000 8.207792 -6.751710 -1.599556 -0.074518 -0.000003 0.000081 -0.000002 -44.370014 0.346960 0.148822 0.000002 0.000000 -0.000001 -44.423664 -3.044403 -0.074314 0.000000 -0.000002 -0.000004 -8.728671 10.710558 0.000007 -0.000000 -0.000000 0.000000 -0.000680 9.278137 -0.000000 0.000000 -0.000001 
